<svg id="visual" viewBox="0 0 960 540" width="960" height="540" xmlns="http://www.w3.org/2000/svg" xmlns:xlink="http://www.w3.org/1999/xlink" version="1.1"><rect x="0" y="0" width="960" height="540" fill="#001220"></rect><defs><linearGradient id="grad1_0" x1="43.8%" y1="100%" x2="100%" y2="0%"><stop offset="14.444444444444446%" stop-color="#715df2" stop-opacity="1"></stop><stop offset="85.55555555555554%" stop-color="#715df2" stop-opacity="1"></stop></linearGradient></defs><defs><linearGradient id="grad1_1" x1="43.8%" y1="100%" x2="100%" y2="0%"><stop offset="14.444444444444446%" stop-color="#715df2" stop-opacity="1"></stop><stop offset="85.55555555555554%" stop-color="#4757d6" stop-opacity="1"></stop></linearGradient></defs><defs><linearGradient id="grad1_2" x1="43.8%" y1="100%" x2="100%" y2="0%"><stop offset="14.444444444444446%" stop-color="#194fb8" stop-opacity="1"></stop><stop offset="85.55555555555554%" stop-color="#4757d6" stop-opacity="1"></stop></linearGradient></defs><defs><linearGradient id="grad1_3" x1="43.8%" y1="100%" x2="100%" y2="0%"><stop offset="14.444444444444446%" stop-color="#194fb8" stop-opacity="1"></stop><stop offset="85.55555555555554%" stop-color="#004599" stop-opacity="1"></stop></linearGradient></defs><defs><linearGradient id="grad1_4" x1="43.8%" y1="100%" x2="100%" y2="0%"><stop offset="14.444444444444446%" stop-color="#00397a" stop-opacity="1"></stop><stop offset="85.55555555555554%" stop-color="#004599" stop-opacity="1"></stop></linearGradient></defs><defs><linearGradient id="grad1_5" x1="43.8%" y1="100%" x2="100%" y2="0%"><stop offset="14.444444444444446%" stop-color="#00397a" stop-opacity="1"></stop><stop offset="85.55555555555554%" stop-color="#002d5a" stop-opacity="1"></stop></linearGradient></defs><defs><linearGradient id="grad1_6" x1="43.8%" y1="100%" x2="100%" y2="0%"><stop offset="14.444444444444446%" stop-color="#00203c" stop-opacity="1"></stop><stop offset="85.55555555555554%" stop-color="#002d5a" stop-opacity="1"></stop></linearGradient></defs><defs><linearGradient id="grad1_7" x1="43.8%" y1="100%" x2="100%" y2="0%"><stop offset="14.444444444444446%" stop-color="#00203c" stop-opacity="1"></stop><stop offset="85.55555555555554%" stop-color="#001220" stop-opacity="1"></stop></linearGradient></defs><defs><linearGradient id="grad2_0" x1="0%" y1="100%" x2="56.3%" y2="0%"><stop offset="14.444444444444446%" stop-color="#715df2" stop-opacity="1"></stop><stop offset="85.55555555555554%" stop-color="#715df2" stop-opacity="1"></stop></linearGradient></defs><defs><linearGradient id="grad2_1" x1="0%" y1="100%" x2="56.3%" y2="0%"><stop offset="14.444444444444446%" stop-color="#4757d6" stop-opacity="1"></stop><stop offset="85.55555555555554%" stop-color="#715df2" stop-opacity="1"></stop></linearGradient></defs><defs><linearGradient id="grad2_2" x1="0%" y1="100%" x2="56.3%" y2="0%"><stop offset="14.444444444444446%" stop-color="#4757d6" stop-opacity="1"></stop><stop offset="85.55555555555554%" stop-color="#194fb8" stop-opacity="1"></stop></linearGradient></defs><defs><linearGradient id="grad2_3" x1="0%" y1="100%" x2="56.3%" y2="0%"><stop offset="14.444444444444446%" stop-color="#004599" stop-opacity="1"></stop><stop offset="85.55555555555554%" stop-color="#194fb8" stop-opacity="1"></stop></linearGradient></defs><defs><linearGradient id="grad2_4" x1="0%" y1="100%" x2="56.3%" y2="0%"><stop offset="14.444444444444446%" stop-color="#004599" stop-opacity="1"></stop><stop offset="85.55555555555554%" stop-color="#00397a" stop-opacity="1"></stop></linearGradient></defs><defs><linearGradient id="grad2_5" x1="0%" y1="100%" x2="56.3%" y2="0%"><stop offset="14.444444444444446%" stop-color="#002d5a" stop-opacity="1"></stop><stop offset="85.55555555555554%" stop-color="#00397a" stop-opacity="1"></stop></linearGradient></defs><defs><linearGradient id="grad2_6" x1="0%" y1="100%" x2="56.3%" y2="0%"><stop offset="14.444444444444446%" stop-color="#002d5a" stop-opacity="1"></stop><stop offset="85.55555555555554%" stop-color="#00203c" stop-opacity="1"></stop></linearGradient></defs><defs><linearGradient id="grad2_7" x1="0%" y1="100%" x2="56.3%" y2="0%"><stop offset="14.444444444444446%" stop-color="#001220" stop-opacity="1"></stop><stop offset="85.55555555555554%" stop-color="#00203c" stop-opacity="1"></stop></linearGradient></defs><g transform="translate(960, 540)"><path d="M-297 0C-289.4 -17.4 -281.9 -34.8 -281.5 -56C-281.1 -77.2 -287.8 -102.3 -268.8 -111.4C-249.9 -120.4 -205.1 -113.3 -193.7 -129.4C-182.3 -145.6 -204.3 -184.9 -199.4 -199.4C-194.5 -214 -162.8 -203.8 -146.7 -219.5C-130.5 -235.2 -129.9 -276.9 -113.7 -274.4C-97.4 -271.9 -65.6 -225.2 -44.1 -221.7C-22.5 -218.1 -11.3 -257.5 0 -297L0 0Z" fill="#00192e"></path><path d="M-259.9 0C-253.3 -15.2 -246.7 -30.4 -246.3 -49C-245.9 -67.6 -251.9 -89.5 -235.2 -97.4C-218.6 -105.3 -179.5 -99.2 -169.5 -113.3C-159.5 -127.4 -178.7 -161.7 -174.5 -174.5C-170.2 -187.2 -142.5 -178.3 -128.3 -192.1C-114.2 -205.8 -113.6 -242.3 -99.4 -240.1C-85.3 -237.9 -57.4 -197.1 -38.6 -194C-19.7 -190.8 -9.9 -225.3 0 -259.9L0 0Z" fill="#00264b"></path><path d="M-222.7 0C-217.1 -13 -211.4 -26.1 -211.1 -42C-210.8 -57.9 -215.9 -76.8 -201.6 -83.5C-187.4 -90.3 -153.8 -85 -145.3 -97.1C-136.8 -109.2 -153.2 -138.6 -149.6 -149.6C-145.9 -160.5 -122.1 -152.8 -110 -164.6C-97.9 -176.4 -97.4 -207.7 -85.2 -205.8C-73.1 -203.9 -49.2 -168.9 -33.1 -166.2C-16.9 -163.6 -8.5 -193.2 0 -222.7L0 0Z" fill="#00336a"></path><path d="M-185.6 0C-180.9 -10.9 -176.2 -21.7 -175.9 -35C-175.7 -48.3 -179.9 -64 -168 -69.6C-156.2 -75.2 -128.2 -70.8 -121.1 -80.9C-114 -91 -127.7 -115.5 -124.6 -124.6C-121.6 -133.7 -101.8 -127.4 -91.7 -137.2C-81.6 -147 -81.2 -173.1 -71 -171.5C-60.9 -169.9 -41 -140.8 -27.6 -138.5C-14.1 -136.3 -7 -161 0 -185.6L0 0Z" fill="#003f8a"></path><path d="M-148.5 0C-144.7 -8.7 -140.9 -17.4 -140.7 -28C-140.5 -38.6 -143.9 -51.2 -134.4 -55.7C-124.9 -60.2 -102.6 -56.7 -96.9 -64.7C-91.2 -72.8 -102.1 -92.4 -99.7 -99.7C-97.3 -107 -81.4 -101.9 -73.3 -109.8C-65.3 -117.6 -64.9 -138.4 -56.8 -137.2C-48.7 -135.9 -32.8 -112.6 -22 -110.8C-11.3 -109 -5.6 -128.8 0 -148.5L0 0Z" fill="#004aa9"></path><path d="M-111.4 0C-108.5 -6.5 -105.7 -13 -105.6 -21C-105.4 -29 -107.9 -38.4 -100.8 -41.8C-93.7 -45.1 -76.9 -42.5 -72.6 -48.5C-68.4 -54.6 -76.6 -69.3 -74.8 -74.8C-72.9 -80.2 -61.1 -76.4 -55 -82.3C-48.9 -88.2 -48.7 -103.8 -42.6 -102.9C-36.5 -102 -24.6 -84.5 -16.5 -83.1C-8.5 -81.8 -4.2 -96.6 0 -111.4L0 0Z" fill="#3153c8"></path><path d="M-74.2 0C-72.4 -4.3 -70.5 -8.7 -70.4 -14C-70.3 -19.3 -72 -25.6 -67.2 -27.8C-62.5 -30.1 -51.3 -28.3 -48.4 -32.4C-45.6 -36.4 -51.1 -46.2 -49.9 -49.9C-48.6 -53.5 -40.7 -50.9 -36.7 -54.9C-32.6 -58.8 -32.5 -69.2 -28.4 -68.6C-24.4 -68 -16.4 -56.3 -11 -55.4C-5.6 -54.5 -2.8 -64.4 0 -74.2L0 0Z" fill="#5c5ae4"></path><path d="M-37.1 0C-36.2 -2.2 -35.2 -4.3 -35.2 -7C-35.1 -9.7 -36 -12.8 -33.6 -13.9C-31.2 -15 -25.6 -14.2 -24.2 -16.2C-22.8 -18.2 -25.5 -23.1 -24.9 -24.9C-24.3 -26.7 -20.4 -25.5 -18.3 -27.4C-16.3 -29.4 -16.2 -34.6 -14.2 -34.3C-12.2 -34 -8.2 -28.2 -5.5 -27.7C-2.8 -27.3 -1.4 -32.2 0 -37.1L0 0Z" fill="#715df2"></path></g><g transform="translate(0, 0)"><path d="M297 0C265.3 13.3 233.6 26.6 234.4 46.6C235.2 66.7 268.6 93.5 274.4 113.7C280.2 133.8 258.3 147.3 242.8 162.2C227.3 177.1 218.2 193.3 203.6 203.6C189.1 214 169.2 218.3 153.3 229.5C137.5 240.6 125.8 258.6 109.4 264.2C93.1 269.9 72.1 263.4 53.1 266.8C34 270.2 17 283.6 0 297L0 0Z" fill="#00192e"></path><path d="M259.9 0C232.1 11.6 204.4 23.3 205.1 40.8C205.8 58.3 235.1 81.8 240.1 99.4C245.1 117.1 226 128.9 212.4 141.9C198.9 155 190.9 169.2 178.2 178.2C165.5 187.2 148 191 134.2 200.8C120.3 210.6 110.1 226.2 95.8 231.2C81.5 236.2 63.1 230.4 46.4 233.4C29.8 236.4 14.9 248.1 0 259.9L0 0Z" fill="#00264b"></path><path d="M222.8 0C199 10 175.2 19.9 175.8 35C176.4 50 201.5 70.1 205.8 85.2C210.1 100.4 193.7 110.5 182.1 121.7C170.5 132.8 163.6 145 152.7 152.7C141.8 160.5 126.9 163.8 115 172.1C103.1 180.5 94.4 193.9 82.1 198.2C69.8 202.4 54.1 197.5 39.8 200.1C25.5 202.6 12.8 212.7 0 222.8L0 0Z" fill="#00336a"></path><path d="M185.6 0C165.8 8.3 146 16.6 146.5 29.1C147 41.7 167.9 58.4 171.5 71C175.1 83.6 161.4 92.1 151.7 101.4C142.1 110.7 136.4 120.8 127.3 127.3C118.2 133.7 105.7 136.5 95.8 143.4C85.9 150.4 78.6 161.6 68.4 165.1C58.2 168.7 45.1 164.6 33.2 166.7C21.3 168.9 10.6 177.2 0 185.6L0 0Z" fill="#003f8a"></path><path d="M148.5 0C132.6 6.6 116.8 13.3 117.2 23.3C117.6 33.3 134.3 46.7 137.2 56.8C140.1 66.9 129.1 73.7 121.4 81.1C113.6 88.6 109.1 96.7 101.8 101.8C94.6 107 84.6 109.2 76.7 114.7C68.8 120.3 62.9 129.3 54.7 132.1C46.5 135 36 131.7 26.5 133.4C17 135.1 8.5 141.8 0 148.5L0 0Z" fill="#004aa9"></path><path d="M111.4 0C99.5 5 87.6 10 87.9 17.5C88.2 25 100.7 35.1 102.9 42.6C105.1 50.2 96.9 55.3 91 60.8C85.2 66.4 81.8 72.5 76.4 76.4C70.9 80.2 63.4 81.9 57.5 86.1C51.6 90.2 47.2 97 41 99.1C34.9 101.2 27 98.8 19.9 100C12.8 101.3 6.4 106.3 0 111.4L0 0Z" fill="#3153c8"></path><path d="M74.3 0C66.3 3.3 58.4 6.6 58.6 11.7C58.8 16.7 67.2 23.4 68.6 28.4C70 33.5 64.6 36.8 60.7 40.6C56.8 44.3 54.5 48.3 50.9 50.9C47.3 53.5 42.3 54.6 38.3 57.4C34.4 60.2 31.5 64.6 27.4 66.1C23.3 67.5 18 65.8 13.3 66.7C8.5 67.5 4.3 70.9 0 74.3L0 0Z" fill="#5c5ae4"></path><path d="M37.1 0C33.2 1.7 29.2 3.3 29.3 5.8C29.4 8.3 33.6 11.7 34.3 14.2C35 16.7 32.3 18.4 30.3 20.3C28.4 22.1 27.3 24.2 25.5 25.5C23.6 26.7 21.1 27.3 19.2 28.7C17.2 30.1 15.7 32.3 13.7 33C11.6 33.7 9 32.9 6.6 33.3C4.3 33.8 2.1 35.4 0 37.1L0 0Z" fill="#715df2"></path></g></svg>